<svg width="50" height="50" viewBox="0 0 50 50" fill="none" xmlns="http://www.w3.org/2000/svg">
<rect width="50" height="50" fill="#FDFDFD" fill-opacity="0.866667"/>
<path d="M19.34 28.8C19.34 30.2533 18.9467 31.3667 18.16 32.14C17.3733 32.9 16.2933 33.28 14.92 33.28C14.2133 33.28 13.5733 33.1867 13 33C12.4267 32.8 11.9333 32.5133 11.52 32.14C11.1067 31.7533 10.7867 31.2867 10.56 30.74C10.3333 30.18 10.22 29.5333 10.22 28.8V27.48H12.86V28.8C12.86 29.4267 13.0333 29.92 13.38 30.28C13.7267 30.6267 14.2133 30.8 14.84 30.8C15.4267 30.8 15.88 30.6267 16.2 30.28C16.5333 29.9333 16.7 29.44 16.7 28.8V21.48H15.26V19H20.54V21.48H19.34V28.8ZM27.4061 30.88C27.9128 30.88 28.3261 30.8067 28.6461 30.66C28.9794 30.5 29.2328 30.2933 29.4061 30.04C29.5928 29.7733 29.7194 29.4733 29.7861 29.14C29.8528 28.7933 29.8861 28.44 29.8861 28.08V27.72H32.5261V28.08C32.5261 29.7467 32.0861 31.0333 31.2061 31.94C30.3394 32.8333 29.0728 33.28 27.4061 33.28C25.8061 33.28 24.5394 32.7933 23.6061 31.82C22.6728 30.8467 22.2061 29.4267 22.2061 27.56V24.44C22.2061 23.5467 22.3261 22.7467 22.5661 22.04C22.8061 21.32 23.1528 20.72 23.6061 20.24C24.0594 19.7467 24.6061 19.3733 25.2461 19.12C25.8861 18.8533 26.6061 18.72 27.4061 18.72C28.2328 18.72 28.9661 18.84 29.6061 19.08C30.2461 19.32 30.7794 19.6667 31.2061 20.12C31.6461 20.5733 31.9728 21.12 32.1861 21.76C32.4128 22.4 32.5261 23.12 32.5261 23.92V24.28H29.8861V23.92C29.8861 23.5867 29.8461 23.2533 29.7661 22.92C29.6861 22.5867 29.5528 22.2867 29.3661 22.02C29.1794 21.7533 28.9261 21.54 28.6061 21.38C28.2861 21.2067 27.8861 21.12 27.4061 21.12C26.9661 21.12 26.5861 21.2067 26.2661 21.38C25.9461 21.54 25.6794 21.7667 25.4661 22.06C25.2528 22.34 25.0928 22.6733 24.9861 23.06C24.8928 23.4333 24.8461 23.8267 24.8461 24.24V27.76C24.8461 28.2133 24.8928 28.6333 24.9861 29.02C25.0794 29.3933 25.2261 29.72 25.4261 30C25.6261 30.28 25.8861 30.5 26.2061 30.66C26.5394 30.8067 26.9394 30.88 27.4061 30.88ZM41.5122 31.38C41.5122 31.6467 41.4589 31.9 41.3522 32.14C41.2589 32.3667 41.1255 32.5667 40.9522 32.74C40.7789 32.9 40.5722 33.0267 40.3322 33.12C40.1055 33.2267 39.8655 33.28 39.6122 33.28C39.3455 33.28 39.0989 33.2267 38.8722 33.12C38.6455 33.0267 38.4455 32.9 38.2722 32.74C38.0989 32.5667 37.9589 32.3667 37.8522 32.14C37.7589 31.9 37.7122 31.6467 37.7122 31.38C37.7122 31.1133 37.7589 30.8667 37.8522 30.64C37.9589 30.4 38.0989 30.2 38.2722 30.04C38.4455 29.8667 38.6455 29.7333 38.8722 29.64C39.0989 29.5333 39.3455 29.48 39.6122 29.48C39.8655 29.48 40.1055 29.5333 40.3322 29.64C40.5722 29.7333 40.7789 29.8667 40.9522 30.04C41.1255 30.2 41.2589 30.4 41.3522 30.64C41.4589 30.8667 41.5122 31.1133 41.5122 31.38Z" fill="#121212"/>
</svg>
